<svg xmlns="http://www.w3.org/2000/svg" version="1.0" width="3644.000000pt" height="4452.000000pt" viewBox="0 0 3644.000000 4452.000000" preserveAspectRatio="xMidYMid meet">

<g transform="translate(0.000000,4452.000000) scale(0.100000,-0.100000)" fill="#e6e6e6" stroke="none">
<path d="M16065 44513 c-1614 -5 -3126 -23 -3247 -37 -426 -52 -809 -202 -1120 -437 -102 -78 -270 -239 -350 -336 -393 -479 -552 -1117 -438 -1752 39 -214 126 -472 228 -676 65 -130 573 -1013 1767 -3070 326 -561 1235 -2129 2020 -3484 785 -1356 1453 -2503 1485 -2551 131 -195 310 -392 485 -533 323 -261 711 -427 1115 -477 109 -13 381 -13 490 0 415 52 815 227 1141 498 127 106 271 259 378 401 137 183 286 432 926 1551 237 415 762 1327 1165 2025 1693 2931 2771 4809 3168 5520 150 268 250 560 298 867 25 156 25 480 1 638 -38 244 -99 444 -203 660 -270 559 -765 966 -1359 1116 -272 68 -217 66 -1725 74 -1241 7 -4442 9 -6225 3z m4375 -1033 c905 -6 1769 -15 1920 -20 300 -10 417 -27 611 -90 128 -41 334 -145 449 -227 122 -87 296 -262 382 -383 81 -113 185 -319 227 -448 151 -457 104 -989 -128 -1450 -99 -197 -1109 -1972 -2266 -3982 -356 -619 -856 -1489 -1110 -1935 -529 -925 -703 -1224 -786 -1346 -249 -363 -586 -625 -970 -753 -740 -246 -1527 50 -2001 751 -27 41 -95 152 -150 246 -204 349 -803 1383 -1433 2472 -356 616 -924 1596 -1261 2177 -720 1240 -1256 2169 -1342 2323 -107 193 -178 388 -224 618 -20 97 -23 142 -22 332 0 200 2 232 27 346 72 340 217 610 456 850 220 219 464 359 766 439 256 68 282 69 1905 79 1733 12 3169 12 4950 1z" fill="#e6e6e6"/>
<path d="M16375 41871 l-750 -7 -99 -27 c-419 -114 -688 -470 -736 -973 l-10 -111 46 -134 c77 -225 46 -168 912 -1694 876 -1543 1511 -2650 1576 -2745 80 -119 246 -296 345 -369 339 -251 724 -264 1067 -36 146 98 294 250 411 425 133 198 2299 3918 2384 4095 109 226 145 379 136 590 -11 268 -104 490 -281 674 -148 152 -311 239 -523 276 -162 28 -2825 49 -4478 36z" fill="#e6e6e6"/>
<path d="M28816 42819 c-623 -59 -1179 -388 -1535 -908 -153 -224 -2559 -4363 -4083 -7026 -1202 -2098 -1302 -2279 -1383 -2499 -152 -411 -181 -876 -79 -1277 154 -615 553 -1105 1129 -1389 221 -109 451 -180 730 -226 169 -27 1398 -32 6290 -24 5002 9 4581 3 4850 67 741 176 1332 700 1568 1394 81 235 111 423 111 694 0 237 -14 355 -69 570 -90 350 -181 526 -955 1855 -152 261 -553 954 -890 1540 -337 586 -836 1452 -1108 1925 -1145 1989 -2344 4054 -2458 4232 -117 184 -335 427 -508 567 -266 216 -580 372 -906 451 -223 53 -495 74 -704 54z m464 -1655 c511 -79 984 -398 1286 -866 139 -215 1040 -1760 2399 -4113 400 -693 870 -1503 1043 -1800 743 -1275 807 -1395 881 -1676 139 -523 63 -1026 -217 -1444 -242 -361 -630 -618 -1083 -719 -246 -54 9 -51 -4559 -51 -4046 0 -4250 1 -4360 18 -413 65 -750 225 -1020 484 -343 328 -520 739 -520 1204 0 284 61 541 189 799 128 257 1704 3008 2702 4717 867 1484 1555 2644 1632 2753 96 135 310 342 447 433 360 238 757 326 1180 261z" fill="#e6e6e6"/>
<path d="M7341 42509 c-299 -33 -616 -140 -861 -289 -254 -155 -491 -383 -659 -634 -111 -165 -2030 -3460 -3248 -5576 -821 -1426 -1965 -3430 -2064 -3615 -132 -247 -228 -546 -264 -818 -17 -136 -20 -394 -5 -517 37 -300 146 -614 298 -857 351 -566 945 -929 1677 -1025 149 -19 10652 -19 10800 0 517 69 965 278 1308 611 354 343 569 777 632 1271 23 176 16 461 -14 630 -40 229 -126 490 -224 685 -95 191 -344 630 -787 1390 -164 281 -564 974 -890 1540 -1870 3249 -2439 4234 -3088 5345 -473 811 -463 793 -562 925 -377 502 -908 828 -1500 920 -127 19 -433 27 -549 14z m397 -1640 c214 -23 389 -73 580 -164 279 -134 528 -342 721 -602 125 -168 723 -1187 2428 -4138 429 -742 923 -1595 1098 -1895 679 -1165 769 -1330 843 -1555 106 -317 130 -661 67 -961 -132 -643 -609 -1130 -1273 -1300 -293 -75 116 -69 -4597 -69 -4491 0 -4297 -2 -4525 47 -221 47 -466 150 -649 273 -538 359 -819 974 -736 1608 26 199 89 404 178 582 94 189 1305 2310 2125 3725 624 1076 1792 3066 2098 3573 165 275 389 506 631 651 304 182 666 263 1011 225z" fill="#e6e6e6"/>
<path d="M24520 28390 c-504 -5 -792 -11 -845 -19 -555 -82 -988 -288 -1349 -640 -196 -192 -329 -374 -441 -606 -240 -493 -279 -1024 -114 -1542 80 -249 38 -173 1274 -2338 1099 -1924 1992 -3472 3123 -5410 709 -1215 1021 -1744 1074 -1823 181 -268 471 -547 727 -698 201 -119 443 -212 671 -258 857 -173 1742 220 2264 1004 90 134 525 884 1776 3055 386 671 1298 2251 2026 3512 728 1260 1355 2347 1394 2416 158 280 266 598 305 900 17 135 20 403 5 527 -51 418 -221 816 -482 1125 -389 461 -933 730 -1588 785 -145 13 -8578 21 -9820 10z m8860 -1045 c302 -41 562 -132 795 -278 321 -200 573 -511 698 -862 118 -332 121 -751 7 -1118 -35 -112 -107 -286 -152 -367 -118 -210 -539 -942 -1483 -2575 -375 -649 -980 -1697 -1345 -2330 -923 -1600 -1304 -2258 -1358 -2340 -238 -359 -581 -629 -961 -755 -212 -71 -297 -84 -541 -84 -186 0 -229 3 -320 23 -452 97 -832 357 -1099 750 -148 218 -1992 3393 -2988 5146 -792 1393 -1259 2224 -1304 2322 -57 123 -106 272 -136 412 -24 114 -27 146 -27 336 0 180 3 225 23 315 115 537 463 974 966 1211 255 120 477 172 815 190 202 11 6243 30 7590 23 575 -2 726 -6 820 -19z" fill="#e6e6e6"/>
<path d="M3170 28100 c-872 -6 -1020 -9 -1120 -24 -174 -26 -291 -53 -455 -107 -786 -258 -1364 -913 -1500 -1700 -71 -408 -8 -858 172 -1240 145 -306 2961 -5206 4686 -8154 707 -1208 680 -1164 832 -1350 303 -368 704 -626 1155 -740 634 -161 1323 -1 1859 431 174 140 365 352 500 553 82 122 605 1022 1811 3116 304 528 1182 2049 1950 3380 1610 2789 1488 2575 1545 2705 244 548 277 1115 99 1650 -108 323 -281 598 -530 841 -389 378 -886 590 -1476 629 -179 11 -7971 20 -9528 10z m8550 -1041 c660 -69 1198 -421 1465 -957 111 -223 162 -427 171 -687 11 -295 -43 -567 -171 -855 -57 -129 -144 -283 -1455 -2550 -405 -701 -1035 -1792 -1400 -2425 -947 -1643 -1346 -2330 -1401 -2411 -249 -370 -596 -636 -989 -758 -198 -61 -269 -71 -510 -71 -231 1 -314 12 -503 71 -117 36 -346 152 -456 231 -185 132 -372 333 -493 529 -143 231 -1203 2044 -1803 3084 -963 1669 -2356 4126 -2446 4315 -263 553 -228 1162 95 1660 234 359 626 635 1067 749 174 44 276 57 559 67 295 11 6769 30 7655 22 286 -2 563 -9 615 -14z" fill="#e6e6e6"/>
<path d="M18225 26469 c-377 -40 -737 -180 -1043 -408 -119 -88 -321 -293 -418 -423 -78 -105 -156 -234 -734 -1223 -1215 -2076 -2474 -4254 -3650 -6310 -1111 -1945 -1068 -1866 -1155 -2130 -86 -259 -119 -461 -118 -725 2 -560 214 -1071 608 -1465 344 -343 770 -552 1300 -637 l140 -23 5330 0 c5035 0 5336 1 5446 18 641 97 1173 410 1519 892 434 606 518 1387 225 2115 -90 224 -252 517 -895 1620 -152 261 -553 954 -890 1540 -1464 2544 -1777 3087 -2193 3805 -495 855 -1211 2083 -1296 2222 -94 155 -200 291 -336 431 -136 141 -233 224 -375 321 -422 289 -972 432 -1465 380z m379 -1639 c549 -52 1052 -368 1381 -865 129 -195 1025 -1731 2520 -4320 340 -588 774 -1338 965 -1665 724 -1242 774 -1337 849 -1621 96 -358 89 -718 -19 -1042 -191 -571 -680 -991 -1310 -1125 -228 -49 -34 -47 -4525 -47 -4486 0 -4273 -2 -4510 46 -735 152 -1297 740 -1385 1452 -18 141 -8 423 20 552 26 125 86 304 137 415 71 153 1172 2088 2081 3655 909 1568 2149 3673 2253 3825 353 516 940 797 1543 740z" fill="#e6e6e6"/>
<path d="M1250 9594 c-384 -35 -665 -159 -906 -399 -160 -160 -277 -325 -315 -445 -20 -65 -20 -76 -19 -2445 0 -1800 4 -2390 12 -2420 16 -54 100 -137 154 -153 57 -17 1039 -17 1095 0 55 16 118 73 145 132 l24 51 0 576 c0 632 1 639 60 711 16 20 53 48 82 62 l52 26 902 0 902 0 53 -28 c60 -31 113 -93 129 -150 6 -23 10 -247 10 -613 0 -652 -2 -636 77 -714 75 -75 74 -75 643 -75 551 0 551 0 627 65 24 20 50 56 63 87 l23 53 -7 1415 c-4 843 -2 1597 4 1865 5 248 13 585 16 750 11 483 -27 702 -167 975 -120 234 -357 469 -596 589 -127 64 -72 61 -1248 61 -588 1 -1153 5 -1255 10 -245 13 -504 19 -560 14z m2212 -1275 c51 -16 104 -62 131 -112 l22 -42 3 -706 3 -706 -29 -54 c-32 -61 -93 -113 -152 -129 -26 -7 -332 -10 -932 -8 l-893 3 -41 22 c-53 28 -110 92 -124 140 -17 59 -8 1383 10 1442 18 59 82 123 141 141 35 11 205 15 814 20 865 8 994 6 1047 -11z" fill="#e6e6e6"/>
<path d="M7615 9593 c-475 -37 -800 -213 -1080 -584 -79 -105 -120 -177 -151 -269 -18 -53 -19 -128 -19 -2436 l0 -2380 30 -59 c19 -37 46 -72 73 -92 81 -61 96 -63 612 -63 545 0 541 -1 626 84 92 93 84 -115 84 2205 0 1286 4 2071 10 2114 12 81 39 138 79 166 65 46 104 49 738 56 739 8 1182 -3 1233 -29 83 -43 108 -90 120 -229 5 -58 9 -975 10 -2118 0 -2211 -4 -2058 59 -2138 16 -20 53 -50 83 -67 l53 -29 499 -3 c584 -3 575 -4 661 82 93 93 86 -46 79 1636 -5 1141 -4 1603 7 2040 16 640 15 810 -7 960 -49 340 -171 590 -398 815 -167 165 -356 289 -483 316 -46 9 -233 9 -873 0 -810 -11 -1340 -5 -1717 19 -151 9 -240 10 -328 3z" fill="#e6e6e6"/>
<path d="M16545 9571 c-86 -21 -176 -99 -205 -177 -13 -33 -15 -347 -20 -2164 l-5 -2126 -25 -48 c-30 -58 -69 -82 -156 -96 -83 -14 -1730 -13 -1814 1 -84 13 -119 34 -150 90 l-25 44 -5 2125 -5 2125 -24 53 c-32 70 -107 137 -176 157 -45 13 -126 15 -536 13 -471 -3 -485 -4 -530 -24 -67 -31 -123 -91 -149 -160 l-22 -59 7 -1445 c6 -1111 4 -1581 -6 -2035 -20 -853 -17 -956 36 -1180 44 -187 105 -327 203 -464 153 -215 423 -415 646 -479 56 -16 137 -17 1051 -14 715 3 1073 0 1290 -10 546 -24 723 -15 940 47 122 35 312 130 415 208 194 147 394 397 452 566 l23 66 0 2395 0 2395 -29 63 c-16 34 -45 77 -66 95 l-36 34 -184 6 c-237 9 -856 7 -895 -2z" fill="#e6e6e6"/>
<path d="M32370 9570 c-134 -16 -317 -86 -436 -168 -80 -55 -310 -276 -389 -374 -105 -133 -160 -256 -186 -423 -15 -97 -29 -1145 -18 -1323 31 -486 191 -793 553 -1063 96 -72 181 -121 262 -151 l59 -23 1270 -5 c1132 -5 1275 -7 1317 -22 71 -24 108 -55 137 -117 l26 -56 3 -332 c4 -388 0 -418 -72 -489 -76 -77 -36 -74 -1023 -74 -934 0 -912 -1 -966 48 -50 45 -88 157 -117 350 -11 74 -28 144 -36 158 l-16 24 -227 0 c-361 -1 -477 -17 -621 -88 -56 -27 -96 -57 -155 -117 -92 -92 -139 -172 -181 -310 -26 -84 -28 -103 -28 -265 0 -157 3 -185 27 -272 33 -124 81 -243 137 -344 33 -58 76 -110 165 -200 128 -129 144 -139 315 -189 154 -45 159 -45 1791 -45 997 0 1565 4 1599 10 30 6 78 21 108 35 105 48 507 428 599 567 121 182 149 365 141 906 -4 229 -2 324 9 390 21 135 28 364 13 478 -49 393 -241 721 -582 995 -159 127 -276 181 -426 194 -40 3 -582 6 -1204 6 -740 0 -1157 3 -1206 10 -123 17 -188 63 -214 152 -19 64 -16 269 5 347 57 207 193 369 392 465 156 75 154 75 843 75 613 0 691 -4 757 -37 74 -37 107 -87 148 -223 53 -172 154 -273 314 -315 47 -12 149 -15 588 -15 l531 0 12 33 c19 47 42 346 42 548 0 385 -67 542 -360 843 -215 221 -343 334 -420 370 -61 28 -75 31 -225 37 -216 10 -2973 8 -3055 -1z" fill="#e6e6e6"/>
<path d="M19233 9541 c-23 -11 -59 -38 -81 -61 -79 -80 -72 182 -72 -2840 0 -3037 -7 -2761 76 -2844 79 -79 62 -77 645 -74 l516 3 49 30 c59 37 108 107 123 175 8 35 11 345 11 966 0 1010 -4 946 66 1024 82 91 195 115 549 114 209 0 253 -3 341 -22 350 -76 641 -248 882 -522 154 -175 279 -381 318 -525 13 -50 17 -143 23 -560 6 -490 7 -501 28 -541 29 -54 101 -117 151 -132 55 -17 1019 -17 1074 0 50 15 122 78 151 132 l22 41 0 750 0 750 -27 80 c-54 159 -69 177 -504 610 -220 220 -409 416 -419 435 -28 51 -26 171 2 226 14 25 169 183 418 425 405 393 469 461 508 539 l22 45 3 777 c4 892 7 854 -77 938 -80 80 -78 80 -641 80 -535 0 -540 0 -613 -61 -20 -17 -49 -52 -65 -77 l-27 -47 -6 -540 c-4 -359 -10 -556 -18 -589 -29 -121 -43 -138 -456 -553 -261 -262 -404 -398 -433 -412 -42 -21 -51 -21 -575 -19 l-534 3 -48 30 c-64 40 -110 101 -124 165 -8 35 -11 343 -11 969 0 1027 4 974 -72 1051 -79 82 -58 80 -628 80 -474 0 -508 -2 -547 -19z" fill="#e6e6e6"/>
<path d="M25244 9541 c-66 -40 -63 23 -57 -1121 5 -799 3 -1111 -8 -1370 -8 -184 -13 -409 -12 -500 5 -401 111 -700 347 -972 101 -117 288 -268 405 -328 111 -56 94 -54 569 -60 l444 -5 34 -37 34 -38 0 -637 c0 -711 -3 -682 69 -730 l34 -23 604 0 c657 0 653 0 690 56 17 26 18 70 23 675 5 635 5 648 26 676 47 65 130 77 329 48 490 -71 920 117 1272 554 93 116 141 197 168 280 17 51 18 162 19 1756 1 1624 0 1702 -17 1728 -10 16 -32 37 -50 47 -31 19 -55 20 -640 20 -670 0 -658 1 -697 -62 -20 -33 -20 -47 -20 -1388 0 -885 -4 -1385 -10 -1439 -12 -94 -35 -146 -80 -184 -62 -53 -48 -52 -1020 -52 l-905 0 -50 25 c-52 26 -86 67 -107 129 -9 27 -14 374 -18 1461 -4 1151 -8 1429 -18 1448 -7 13 -28 32 -45 42 -31 19 -56 20 -657 20 -594 0 -627 -1 -656 -19z" fill="#e6e6e6"/>
<path d="M17972 2803 c-4 -1 -24 -4 -44 -8 -21 -3 -52 -18 -69 -32 -65 -55 -61 27 -60 -1347 2 -999 5 -1255 15 -1280 7 -17 31 -47 53 -68 56 -50 116 -61 307 -56 139 3 156 5 201 29 35 18 59 39 80 74 l30 48 5 296 c5 318 7 328 62 377 54 50 40 49 618 55 516 5 549 6 621 26 243 68 367 212 409 473 5 37 10 249 10 490 0 469 -2 489 -62 604 -47 89 -174 213 -265 259 -40 19 -96 40 -125 46 -43 8 -1751 22 -1786 14z m1495 -667 l49 -54 13 -193 c16 -261 3 -325 -76 -371 -49 -29 -155 -38 -482 -38 l-313 0 -47 25 c-52 29 -89 76 -102 132 -12 53 -11 342 2 402 6 30 22 63 42 85 60 67 51 66 478 66 l387 0 49 -54z" fill="#e6e6e6"/>
<path d="M11974 2775 c-80 -48 -74 61 -74 -1365 0 -1408 -4 -1314 64 -1363 30 -21 39 -22 273 -22 230 0 243 1 270 21 15 12 37 36 48 55 19 32 20 57 25 364 6 372 4 364 86 405 38 19 59 20 410 20 387 -1 419 -4 466 -47 51 -46 53 -57 58 -400 5 -305 6 -323 26 -349 50 -68 53 -69 305 -72 254 -3 279 1 321 61 27 37 38 163 40 437 2 236 -9 291 -94 459 -61 120 -63 126 -62 200 0 60 6 89 28 141 107 248 117 303 123 677 5 286 4 305 -16 371 -37 121 -165 290 -281 369 -97 66 -46 63 -1058 63 l-917 0 -41 -25z m1553 -657 l76 -76 -2 -201 c-3 -262 -13 -294 -99 -334 -45 -21 -62 -22 -427 -25 -357 -3 -382 -2 -415 16 -19 11 -45 34 -57 52 -22 32 -23 40 -23 288 0 290 3 301 83 342 41 21 49 21 415 18 l373 -4 76 -76z" fill="#e6e6e6"/>
<path d="M15235 2775 c-177 -62 -331 -220 -385 -394 -19 -61 -20 -93 -20 -975 0 -994 -2 -961 57 -1084 40 -81 178 -218 264 -259 127 -63 128 -63 844 -63 705 0 776 4 909 54 126 48 215 129 272 249 69 148 67 115 71 1096 3 604 0 900 -7 936 -32 156 -175 336 -330 415 -99 50 -92 50 -874 50 l-731 0 -70 -25z m1253 -600 c18 -11 41 -38 52 -60 19 -40 20 -64 20 -716 l0 -675 -22 -44 c-43 -84 -33 -82 -492 -82 -459 0 -458 0 -499 76 -22 41 -22 42 -24 706 -1 412 2 679 8 702 13 49 53 96 92 106 18 5 212 8 432 8 380 -1 402 -2 433 -21z" fill="#e6e6e6"/>
<path d="M24918 2790 c-140 -25 -261 -89 -340 -179 -56 -64 -90 -133 -119 -237 -21 -74 -22 -99 -22 -409 0 -369 8 -432 67 -560 62 -132 165 -217 319 -263 70 -20 117 -25 312 -34 127 -5 370 -7 540 -4 326 6 364 2 419 -37 58 -41 86 -167 66 -293 -21 -133 -77 -178 -220 -177 -135 0 -455 0 -575 -1 -96 -1 -116 2 -158 22 -50 25 -97 88 -97 131 0 39 -28 89 -59 105 -25 13 -72 16 -268 16 -268 0 -290 -5 -328 -70 -17 -31 -20 -51 -18 -170 2 -220 48 -357 157 -465 68 -67 138 -105 254 -138 76 -21 87 -22 792 -22 l715 0 75 23 c217 68 351 210 395 417 21 98 21 661 1 767 -50 259 -181 401 -431 470 -76 21 -105 22 -620 27 l-540 6 -37 23 c-60 37 -83 97 -83 217 0 123 21 179 81 216 l39 24 385 2 c223 1 401 -3 423 -8 22 -6 55 -27 77 -49 31 -31 42 -51 52 -100 8 -39 20 -68 36 -83 23 -22 28 -22 281 -22 228 0 260 2 284 18 52 34 61 68 60 227 -1 222 -40 343 -145 448 -64 64 -161 116 -274 144 -83 22 -105 23 -344 19 -438 -6 -758 -6 -935 1 -93 4 -191 3 -217 -2z" fill="#e6e6e6"/>
<path d="M9453 2780 c-283 -42 -508 -248 -573 -523 -20 -84 -20 -111 -18 -979 l3 -893 28 -52 c63 -120 232 -262 367 -310 l69 -23 748 2 748 3 69 33 c145 68 295 203 343 308 l26 57 5 846 c5 911 4 950 -45 1085 -73 203 -251 367 -463 425 -41 12 -98 21 -127 21 l-53 0 0 -1023 0 -1023 -22 -44 c-44 -86 -119 -110 -283 -91 -115 14 -271 14 -410 0 -185 -17 -256 3 -298 85 -20 38 -21 57 -21 1070 -1 1024 -1 1031 -21 1032 -11 1 -43 -2 -72 -6z" fill="#e6e6e6"/>
<path d="M6336 2765 c-83 -29 -148 -104 -165 -187 -8 -37 -11 -400 -9 -1208 l3 -1155 23 -47 c30 -61 93 -114 156 -133 74 -22 1738 -22 1812 0 65 19 116 63 148 127 23 45 26 65 26 150 0 114 -13 154 -68 211 -73 76 -33 71 -662 77 -555 5 -566 5 -605 27 -90 48 -139 127 -139 223 0 77 21 127 76 181 68 66 91 69 457 69 194 0 341 4 363 10 59 17 120 69 151 129 25 50 27 64 27 167 0 103 -2 116 -28 165 -30 59 -95 111 -160 129 -22 6 -172 10 -362 10 -202 0 -340 4 -364 11 -55 15 -141 103 -156 160 -30 112 12 226 104 284 l49 30 562 5 561 5 60 30 c72 37 117 98 134 182 14 64 8 156 -14 206 -19 47 -72 105 -120 130 l-41 22 -890 2 c-746 2 -896 0 -929 -12z" fill="#e6e6e6"/>
<path d="M20859 2753 c-61 -32 -113 -93 -129 -153 -7 -26 -9 -423 -8 -1222 l3 -1183 22 -41 c25 -48 81 -100 132 -123 32 -14 126 -16 926 -16 981 0 934 -3 1008 64 63 57 87 118 87 226 0 104 -23 167 -81 222 -74 70 -53 67 -679 73 -453 4 -570 8 -590 19 -57 31 -92 65 -117 114 -61 120 -20 267 95 334 l47 28 365 5 c411 6 416 6 492 85 51 53 68 108 68 226 0 86 -3 102 -28 150 -31 60 -93 113 -150 129 -22 6 -169 10 -363 10 -257 0 -336 3 -375 15 -139 41 -213 203 -153 335 27 60 64 98 124 126 l50 24 531 0 c590 0 596 1 671 65 66 57 88 112 88 225 -1 109 -19 162 -76 219 -75 75 -9 71 -1010 71 l-895 0 -55 -27z" fill="#e6e6e6"/>
<path d="M27596 2760 c-63 -25 -128 -88 -158 -154 l-23 -51 0 -1155 c0 -1153 0 -1155 21 -1201 30 -63 79 -116 138 -147 l51 -27 854 -3 c967 -3 921 -6 1009 73 123 111 134 284 25 405 -24 27 -65 59 -91 72 l-47 23 -540 5 c-537 5 -540 5 -582 28 -54 28 -107 81 -135 135 l-23 42 -5 880 c-5 867 -5 881 -26 925 -31 68 -68 106 -136 139 -57 29 -68 31 -172 31 -85 -1 -123 -5 -160 -20z" fill="#e6e6e6"/>
</g>
</svg>